<svg width="1200" height="1400" viewBox="0 0 1200 1400" fill="none" xmlns="http://www.w3.org/2000/svg">
  <rect width="1200" height="1400" fill="#080806"/>
  <path d="M0 160H1200M0 320H1200M0 480H1200M0 640H1200M0 800H1200M0 960H1200M0 1120H1200M0 1280H1200" stroke="#F3EEE4" stroke-opacity="0.09"/>
  <path d="M120 0V1400M300 0V1400M480 0V1400M660 0V1400M840 0V1400M1020 0V1400" stroke="#F3EEE4" stroke-opacity="0.09"/>
  <circle cx="600" cy="620" r="236" stroke="#D9FF6B" stroke-width="2"/>
  <circle cx="600" cy="620" r="150" stroke="#F3EEE4" stroke-opacity="0.35"/>
  <circle cx="600" cy="620" r="62" fill="#D9FF6B"/>
  <text x="600" y="606" text-anchor="middle" fill="#080806" font-family="Arial, Helvetica, sans-serif" font-size="24" font-weight="900">DR</text>
  <text x="600" y="638" text-anchor="middle" fill="#080806" font-family="Arial, Helvetica, sans-serif" font-size="24" font-weight="900">AI</text>
  <g font-family="PingFang SC, Arial, Helvetica, sans-serif" font-weight="900" font-size="26" fill="#F3EEE4">
    <text x="158" y="250">视觉部</text>
    <text x="840" y="290">社媒团队</text>
    <text x="130" y="1018">产品团队</text>
    <text x="844" y="1074">电商团队</text>
  </g>
  <g stroke="#F3EEE4" stroke-opacity="0.42">
    <path d="M268 260L487 505"/>
    <path d="M850 304L704 500"/>
    <path d="M286 1008L498 740"/>
    <path d="M848 1058L704 740"/>
  </g>
  <g>
    <rect x="120" y="190" width="260" height="130" stroke="#F3EEE4" stroke-opacity="0.36"/>
    <rect x="800" y="230" width="250" height="130" stroke="#F3EEE4" stroke-opacity="0.36"/>
    <rect x="112" y="950" width="300" height="130" stroke="#F3EEE4" stroke-opacity="0.36"/>
    <rect x="800" y="1010" width="280" height="130" stroke="#F3EEE4" stroke-opacity="0.36"/>
  </g>
  <g font-family="PingFang SC, Arial, Helvetica, sans-serif" font-size="18" fill="#A8B3AC">
    <text x="158" y="286">图片 · 视频 · 空间陈列</text>
    <text x="840" y="326">故事 · 脚本 · 内容发布</text>
    <text x="130" y="1054">创意 · 样片 · 概念表达</text>
    <text x="844" y="1110">头图 · 套图 · 短视频</text>
  </g>
  <g stroke="#D9FF6B" stroke-width="2">
    <path d="M160 735H1040"/>
    <path d="M160 850H1040"/>
    <path d="M160 735V850"/>
    <path d="M380 735V850"/>
    <path d="M600 735V850"/>
    <path d="M820 735V850"/>
    <path d="M1040 735V850"/>
  </g>
  <g font-family="PingFang SC, Arial, Helvetica, sans-serif" font-size="22" font-weight="900" fill="#D9FF6B">
    <text x="184" y="804">现场启动</text>
    <text x="414" y="804">业务实操</text>
    <text x="636" y="804">课后答疑</text>
    <text x="858" y="804">后续扩展</text>
  </g>
  <text x="72" y="95" fill="#F3EEE4" font-family="PingFang SC, Arial, Helvetica, sans-serif" font-size="56" font-weight="900">AI 企业应用</text>
  <text x="72" y="150" fill="#F3EEE4" fill-opacity="0.65" font-family="PingFang SC, Arial, Helvetica, sans-serif" font-size="38" font-weight="900">能力启动系统</text>
  <text x="72" y="1290" fill="#A8B3AC" font-family="PingFang SC, Arial, Helvetica, sans-serif" font-size="22">5 天现场启动 · 固定线上答疑 · 应用辅导课 · 追加线下扩展</text>
</svg>
